<?xml version="1.0" standalone="no"?>
<!DOCTYPE svg PUBLIC "-//W3C//DTD SVG 20010904//EN"
 "http://www.w3.org/TR/2001/REC-SVG-20010904/DTD/svg10.dtd">
<svg version="1.0" xmlns="http://www.w3.org/2000/svg"
 width="260.000000pt" height="260.000000pt" viewBox="0 0 260.000000 260.000000"
 preserveAspectRatio="xMidYMid meet">
<metadata>
Created by potrace 1.14, written by Peter Selinger 2001-2017
</metadata>
<g transform="translate(0.000000,260.000000) scale(0.100000,-0.100000)"
fill="#000000" stroke="none">
<path d="M1929 2060 c-1 -3 -2 -59 -4 -125 -3 -131 -12 -177 -56 -274 -16 -35
-29 -65 -29 -65 0 -1 34 -20 76 -41 l77 -40 39 45 c46 51 99 144 123 215 18
49 29 263 16 282 -6 9 -240 12 -242 3z"/>
<path d="M1017 2004 c-1 -1 -27 -4 -57 -7 -256 -28 -450 -192 -530 -450 -35
-113 -49 -361 -28 -497 39 -256 191 -460 404 -539 77 -29 96 -32 220 -37 173
-6 307 37 428 136 123 102 215 281 234 455 8 73 7 283 0 345 -44 345 -288 579
-620 594 -27 1 -50 1 -51 0z m128 -304 c88 -40 142 -122 171 -260 20 -98 14
-382 -11 -460 -47 -151 -136 -230 -260 -230 -152 0 -258 124 -280 325 -25 234
6 452 79 548 66 88 201 123 301 77z"/>
</g>
</svg>
